<?xml version="1.0" standalone="no"?>
<!DOCTYPE svg PUBLIC "-//W3C//DTD SVG 20010904//EN"
 "http://www.w3.org/TR/2001/REC-SVG-20010904/DTD/svg10.dtd">
<svg version="1.0" xmlns="http://www.w3.org/2000/svg"
 width="576.000000pt" height="600.000000pt" viewBox="0 0 576.000000 600.000000"
 preserveAspectRatio="xMidYMid meet">

<g transform="translate(0.000000,600.000000) scale(0.100000,-0.100000)"
fill="#000000" stroke="none">
<path d="M2341 5968 c-42 -109 -54 -365 -26 -535 20 -114 79 -302 124 -391 17
-34 31 -64 31 -67 0 -10 -41 -5 -75 9 -18 8 -55 34 -81 58 l-47 43 5 -66 c7
-79 36 -149 80 -189 l32 -30 -31 0 c-38 0 -91 22 -160 66 l-53 34 0 -39 c0
-58 46 -205 95 -306 24 -49 42 -91 40 -93 -2 -2 -41 6 -87 17 -46 12 -106 24
-134 27 l-51 6 -7 -46 c-16 -105 -135 -280 -214 -314 -100 -43 -259 -54 -386
-27 -38 8 -71 14 -72 12 -1 -1 15 -29 36 -61 62 -94 124 -285 150 -456 6 -41
13 -163 16 -270 l6 -195 -46 -158 c-82 -284 -179 -743 -291 -1377 -30 -173
-55 -318 -55 -322 0 -5 -15 -8 -32 -8 -37 0 -207 26 -232 36 -14 5 -16 -6 -16
-97 -1 -163 -29 -312 -68 -357 -16 -20 -20 -20 -109 -7 -50 8 -102 17 -115 20
-20 4 -28 -3 -58 -57 -43 -77 -209 -247 -300 -309 -36 -24 -96 -60 -135 -81
-43 -22 -64 -39 -55 -42 30 -9 300 -57 515 -91 451 -70 786 -99 1145 -99 309
1 476 20 627 75 102 36 116 37 280 21 205 -20 641 -12 848 16 47 7 50 9 49 35
-1 25 1 27 45 28 89 3 356 -2 384 -7 l27 -6 0 -184 0 -185 128 3 127 3 6 160
c4 88 7 171 8 184 l1 24 160 -7 c88 -4 160 -4 160 0 0 3 -22 45 -49 93 -79
140 -171 328 -171 348 0 58 101 320 197 510 l67 131 -27 60 c-15 33 -27 63
-27 67 0 10 74 -50 154 -125 l68 -65 46 50 c108 119 236 314 308 471 55 118
112 300 135 430 39 220 27 497 -31 711 -20 72 -20 73 0 135 11 35 20 68 20 75
0 6 -17 17 -37 24 -109 35 -220 117 -297 219 -25 35 -50 69 -55 77 -6 12 -23
6 -87 -32 -43 -26 -99 -61 -124 -79 l-45 -32 -23 28 c-13 15 -28 28 -33 28 -5
0 -37 -23 -71 -50 -69 -56 -180 -116 -234 -126 -34 -6 -55 -39 -39 -63 21 -34
-102 28 -143 72 l-23 25 46 56 45 56 -55 67 c-30 37 -54 68 -52 69 1 1 23 18
49 37 l47 36 88 -6 c74 -5 96 -3 127 12 41 20 76 66 76 102 0 18 9 24 43 33
124 31 171 45 264 81 224 87 338 206 305 317 -7 22 -27 59 -45 83 l-34 44 19
30 c10 17 18 42 18 58 0 25 3 27 38 27 60 0 128 48 240 168 159 172 246 220
417 231 l100 6 -45 29 c-65 43 -170 85 -253 102 -90 19 -256 19 -366 -1 -208
-36 -436 -42 -461 -12 -6 7 -29 48 -51 92 -159 305 -409 533 -674 614 -253 78
-515 -7 -747 -241 l-88 -89 -32 17 c-53 27 -197 126 -283 195 -141 111 -244
224 -379 414 -14 20 -14 19 -25 -7z m102 -288 c21 -41 64 -112 97 -158 l59
-82 -24 -35 c-22 -33 -44 -109 -46 -158 -1 -36 -76 127 -119 260 -62 189 -83
441 -26 303 12 -30 39 -89 59 -130z m134 -37 c99 -96 230 -201 383 -308 69
-48 154 -113 189 -144 77 -67 176 -188 206 -252 l21 -47 49 55 c45 51 145 113
183 113 6 0 12 4 12 8 0 10 -77 83 -116 110 -54 37 -176 80 -264 93 -47 7 -95
19 -108 27 l-23 15 58 59 c144 146 352 249 529 264 167 13 334 -52 510 -200
179 -151 274 -292 274 -411 1 -57 1 -59 15 -35 8 14 15 43 15 65 1 38 1 39 16
20 8 -11 34 -58 57 -104 31 -62 43 -79 45 -63 3 19 7 21 30 15 52 -15 313 -8
427 12 139 23 351 26 415 5 l45 -14 -105 -7 c-162 -10 -285 -40 -430 -107 -36
-16 -88 -37 -117 -45 -50 -15 -52 -15 -73 8 -30 32 -115 67 -153 63 -30 -3
-27 -5 41 -37 71 -34 142 -96 142 -125 0 -9 -20 -19 -52 -26 -66 -15 -245 -25
-292 -16 -36 7 -36 7 -22 34 18 35 61 75 106 98 32 17 33 19 12 22 -43 7 -110
-36 -143 -92 -17 -28 -28 -40 -24 -26 3 14 9 57 12 97 5 65 3 76 -20 116 -15
24 -37 51 -50 60 -20 13 -25 26 -29 81 -9 106 -71 191 -171 232 -42 17 -47 22
-47 52 0 62 -53 138 -122 173 -54 28 -57 23 -9 -17 49 -43 91 -119 91 -168 0
-32 4 -36 53 -59 100 -47 163 -132 171 -235 3 -42 9 -56 34 -77 46 -38 66
-100 60 -186 -3 -39 -9 -74 -14 -79 -12 -12 -173 54 -279 112 -44 25 -114 63
-155 86 -89 48 -193 76 -255 66 -41 -6 -112 -40 -103 -50 3 -2 28 0 56 6 29 5
59 7 68 3 13 -5 11 -10 -9 -32 -29 -30 -57 -83 -57 -106 0 -12 -17 -15 -102
-16 -77 0 -95 -3 -73 -10 16 -4 46 -9 67 -11 48 -2 40 -11 -42 -42 -62 -24
-63 -25 -28 -26 20 0 64 9 98 19 44 14 62 16 64 8 34 -128 71 -186 150 -232
81 -48 239 -68 310 -39 33 13 -34 -63 -120 -136 -104 -89 -200 -152 -319 -210
-107 -53 -263 -107 -332 -117 -66 -9 -52 -25 15 -18 200 23 395 97 577 219 58
39 63 40 162 44 57 2 114 1 128 -2 l26 -7 -21 -27 c-28 -34 -9 -42 32 -12 32
23 58 22 93 -6 19 -15 19 -17 -29 -60 -27 -25 -47 -47 -44 -49 2 -3 31 11 64
31 l59 35 21 -24 21 -25 54 19 c58 20 109 25 109 10 0 -5 -24 -31 -53 -58 -68
-62 -170 -117 -202 -109 -22 6 -23 4 -18 -33 8 -61 -3 -88 -49 -118 -35 -23
-51 -27 -112 -27 -75 0 -147 20 -198 56 -42 29 -33 5 13 -37 32 -29 38 -39 28
-46 -61 -39 -437 -180 -477 -179 -13 1 -65 59 -80 91 -1 4 30 19 70 33 99 37
260 108 255 112 -2 3 -85 -20 -183 -50 l-179 -55 -29 29 -29 28 102 51 c55 28
101 53 101 56 0 9 -49 -5 -148 -42 l-92 -34 -73 59 c-39 32 -84 67 -99 76 -16
10 -28 23 -28 29 0 6 -18 41 -40 77 -57 96 -168 211 -269 277 -47 31 -88 58
-90 59 -2 2 24 28 57 58 32 31 76 81 97 111 21 30 39 55 40 55 1 0 29 -11 63
-25 34 -14 65 -25 69 -25 3 0 -34 27 -83 59 -272 181 -476 472 -560 801 -32
128 -30 140 10 45 136 -329 343 -578 576 -695 77 -39 194 -80 227 -80 22 0 23
3 23 73 0 128 -47 250 -139 363 -27 33 -116 116 -197 184 -263 219 -352 314
-437 470 -55 101 -57 123 -8 65 24 -28 76 -83 118 -122z m148 -320 l83 -78
-24 -28 c-29 -35 -52 -111 -61 -201 l-6 -69 -29 34 c-15 19 -53 70 -82 114
l-55 80 10 60 c11 68 52 165 69 165 7 0 49 -35 95 -77z m655 -119 c68 -26 146
-72 174 -103 16 -17 14 -19 -31 -36 -26 -10 -66 -36 -89 -57 l-42 -39 -12 35
c-14 44 -77 142 -127 197 l-38 42 50 -7 c27 -5 79 -19 115 -32z m-435 -59 c41
-36 68 -65 59 -65 -64 0 -112 -77 -122 -200 l-7 -81 -63 58 -63 58 11 80 c16
109 63 215 96 215 8 0 48 -29 89 -65z m154 -147 c56 -75 101 -194 108 -284 6
-69 5 -74 -14 -74 -11 0 -76 28 -144 63 l-124 62 -3 70 c-4 93 12 148 55 185
50 44 75 40 122 -22z m-683 -58 c19 -7 44 -10 54 -7 15 4 30 -10 64 -56 24
-34 72 -93 107 -130 49 -54 59 -71 48 -78 -33 -21 -129 -42 -194 -42 -83 1
-139 15 -216 53 -51 26 -57 33 -68 74 -6 25 -11 47 -11 49 0 2 26 -5 58 -16
60 -22 189 -29 227 -14 18 8 16 11 -20 29 -73 37 -155 133 -155 182 0 12 8 10
35 -9 20 -13 52 -29 71 -35z m3129 -49 c16 -6 12 -9 -18 -14 -58 -9 -181 -72
-246 -127 l-59 -49 -5 57 c-3 31 -8 66 -12 78 -6 21 10 26 170 58 35 7 149 5
170 -3z m-1685 -40 c30 -10 99 -40 152 -67 l98 -49 -205 0 c-130 0 -205 4
-205 10 0 28 78 126 100 125 3 0 30 -9 60 -19z m1314 -33 c11 -42 6 -128 -9
-165 -24 -56 -61 -100 -108 -127 -60 -34 -93 -40 -100 -18 -2 9 -8 25 -12 35
-5 12 -2 17 9 17 9 0 34 16 56 36 49 45 67 96 53 153 l-11 41 52 24 c63 31 62
31 70 4z m-154 -90 c0 -51 -25 -104 -62 -131 l-27 -20 -24 29 c-23 26 -24 30
-9 38 9 5 19 10 21 12 2 2 -4 15 -13 30 -10 14 -15 29 -11 32 7 7 107 51 118
52 4 0 7 -19 7 -42z m-1010 -41 c0 -12 9 -39 19 -60 17 -33 17 -37 2 -37 -33
0 -190 48 -247 76 l-59 28 70 6 c39 4 103 7 143 8 69 2 72 1 72 -21z m220 -7
c21 -11 17 -35 -7 -44 -20 -8 -43 11 -43 35 0 21 21 25 50 9z m-1735 -85 c94
0 105 2 168 33 l67 33 30 -23 c16 -13 28 -27 27 -33 -2 -5 -38 -28 -80 -49
-66 -33 -90 -40 -156 -44 -84 -5 -190 19 -239 53 -18 13 -62 82 -62 98 0 2 32
-13 72 -32 68 -34 77 -36 173 -36z m1221 67 c22 -20 162 -74 237 -92 45 -11
132 -23 192 -27 110 -6 110 -6 75 -22 -52 -23 -195 -19 -307 8 -106 26 -216
85 -221 120 -3 22 7 27 24 13z m683 -41 c30 -5 35 -11 46 -53 11 -46 11 -48
-9 -48 -12 -1 -34 -7 -51 -14 -26 -11 -34 -10 -63 7 -30 18 -32 21 -17 30 10
5 42 7 73 5 48 -4 53 -3 37 9 -11 7 -38 13 -62 13 -43 0 -43 0 -43 36 0 35 1
36 28 29 15 -4 42 -11 61 -14z m458 -20 c11 -17 5 -18 -94 -25 -153 -9 -285
-8 -279 3 4 5 2 11 -4 13 -5 1 47 4 118 4 70 1 145 6 167 12 60 15 79 14 92
-7z m-1979 -59 c4 -12 -112 -138 -170 -184 l-39 -30 -62 28 c-34 15 -100 40
-147 55 -74 23 -89 32 -112 65 -37 52 -35 58 10 35 126 -64 289 -45 407 49
l50 39 29 -23 c17 -12 32 -28 34 -34z m915 -10 c99 -48 169 -63 279 -63 54 0
103 2 110 6 7 4 4 -1 -7 -10 -50 -40 -219 -59 -307 -35 -47 13 -113 65 -141
109 -11 19 -17 32 -11 29 5 -2 39 -19 77 -36z m949 -21 c-2 -16 1 -39 8 -51 6
-12 10 -24 7 -26 -6 -6 -174 54 -227 82 l-45 23 131 1 131 0 -5 -29z m168 5
c0 -34 -16 -41 -34 -14 -22 31 -20 38 9 38 20 0 25 -5 25 -24z m-583 -31 c16
-11 28 -13 48 -5 55 21 115 8 143 -32 7 -10 22 -18 33 -18 34 0 59 -19 59 -45
0 -21 -5 -25 -31 -25 -22 0 -32 5 -36 19 -5 18 -7 18 -40 -5 -50 -34 -83 -31
-109 9 -18 28 -25 32 -61 30 -33 -1 -46 4 -68 27 -17 17 -25 35 -22 44 8 20
56 21 84 1z m244 -20 c33 -14 33 -14 8 -15 -15 0 -32 7 -39 15 -16 19 -11 19
31 0z m-2372 -35 c274 -62 508 -157 660 -270 130 -96 186 -180 255 -377 32
-95 91 -341 83 -349 -9 -9 -64 76 -76 116 -58 203 -167 371 -318 491 -87 69
-264 159 -373 189 -145 40 -311 36 -447 -11 -31 -10 -58 -19 -60 -19 -1 0 17
32 41 71 24 39 52 97 63 130 10 32 22 59 27 59 5 0 70 -14 145 -30z m2053 -15
c33 -31 44 -35 72 -29 30 5 37 2 61 -30 32 -41 52 -44 104 -15 l38 21 33 -20
c18 -11 38 -18 45 -16 29 11 52 -106 35 -176 l-12 -50 -51 0 c-29 0 -62 -3
-75 -6 -22 -6 -22 -5 -16 34 3 23 3 63 -1 89 l-8 48 -13 -89 c-8 -49 -16 -91
-19 -94 -3 -3 -26 14 -50 38 -34 33 -45 52 -45 75 0 16 -7 53 -14 80 l-14 50
-1 -76 -1 -77 -37 13 c-32 11 -40 20 -53 58 -20 60 -25 64 -25 17 0 -21 -3
-41 -5 -43 -3 -3 -46 -7 -97 -9 l-92 -4 38 45 c21 26 57 75 80 110 35 54 66
90 80 91 2 0 21 -16 43 -35z m482 -1 c48 -13 103 -24 122 -24 39 0 43 -9 14
-35 -18 -16 -27 -17 -91 -6 -73 12 -129 34 -129 51 0 6 -10 20 -22 32 -19 19
-19 21 -2 13 10 -4 59 -18 108 -31z m0 -88 c54 -14 44 -26 -24 -26 -30 0 -41
6 -55 26 -17 27 -17 27 6 20 13 -4 46 -12 73 -20z m175 -50 c25 -41 27 -105 5
-152 -25 -52 -108 -119 -209 -169 -109 -53 -299 -120 -320 -111 -18 7 -20 26
-2 26 23 0 142 62 194 100 38 29 60 56 84 105 28 58 31 71 26 124 l-6 58 53 6
c30 3 74 14 97 25 58 27 54 27 78 -12z m-2433 -100 c119 -44 250 -120 356
-208 55 -46 157 -178 195 -251 28 -55 55 -128 50 -133 -2 -2 -23 24 -47 59
-64 90 -221 248 -304 306 -219 151 -435 172 -654 64 -97 -48 -214 -157 -283
-266 -53 -83 -172 -322 -185 -370 -13 -56 -21 -33 -27 81 -11 201 -56 398
-122 541 -19 40 -35 74 -35 75 0 0 32 -1 71 -2 98 -5 246 21 414 73 199 62
215 64 365 61 116 -3 145 -7 206 -30z m-46 -147 c46 -5 107 -18 136 -29 137
-48 314 -212 520 -485 115 -151 204 -246 319 -341 l49 -41 -34 -59 c-47 -78
-167 -203 -243 -252 -105 -69 -172 -87 -317 -87 -108 0 -130 3 -160 21 -60 35
-60 83 -3 164 l18 25 -31 -25 c-43 -34 -74 -81 -74 -112 0 -81 170 -135 340
-109 251 39 444 185 561 424 24 48 38 67 49 63 8 -2 48 -16 89 -31 152 -55
360 -79 481 -55 25 4 46 7 48 6 1 -2 -23 -41 -54 -87 -72 -110 -193 -357 -239
-489 -40 -115 -98 -345 -114 -455 -32 -219 -34 -489 -5 -732 l7 -53 -54 16
c-122 34 -545 263 -795 429 -298 198 -515 587 -619 1110 -29 144 -55 346 -55
422 0 33 -4 52 -10 48 -13 -8 -13 -197 0 -360 28 -337 110 -645 226 -847 143
-248 404 -503 661 -643 54 -30 104 -58 112 -63 22 -13 -52 -155 -185 -354
-322 -481 -507 -647 -805 -722 -202 -52 -510 -67 -809 -42 -261 23 -662 69
-955 112 -321 46 -297 38 -239 77 82 54 202 177 262 266 30 48 56 87 56 88 1
1 57 -5 126 -14 166 -19 598 -13 750 11 116 19 257 53 383 92 87 28 266 100
281 114 5 5 -58 -13 -140 -40 -292 -95 -551 -138 -881 -147 -122 -3 -228 -3
-237 0 -13 5 -12 14 9 62 37 82 64 189 71 278 5 59 10 77 20 73 49 -19 271
-39 434 -39 365 -1 690 77 1001 240 168 88 166 97 -6 29 -216 -85 -437 -153
-571 -176 -187 -32 -473 -50 -551 -34 l-30 6 28 186 c89 591 303 1531 430
1886 147 410 351 639 600 676 30 4 56 8 59 9 3 0 43 -4 90 -10z m1549 -482
c12 -24 32 -54 46 -67 l24 -23 -39 -46 c-33 -38 -100 -166 -123 -233 -7 -21
-18 -22 -68 -8 l-35 10 4 167 c2 93 7 171 11 174 3 3 35 16 71 28 36 13 69 27
75 32 13 12 11 14 34 -34z m863 -44 c9 -16 40 -54 69 -86 l52 -58 -32 -33
c-18 -19 -61 -50 -97 -71 -35 -21 -64 -44 -64 -51 0 -17 -3 -17 -47 1 -19 8
-37 15 -39 15 -2 0 -19 -23 -38 -52 l-35 -52 -18 40 c-11 27 -17 67 -17 129
l-1 90 115 78 c63 42 119 77 125 77 6 0 18 -12 27 -27z m-312 -78 c10 -12 10
-24 0 -59 -6 -23 -13 -62 -14 -86 -2 -36 -7 -45 -32 -58 -16 -9 -58 -18 -93
-21 -64 -6 -65 -6 -73 -41 -16 -63 -16 -64 -35 -49 -23 19 -63 108 -63 140 0
23 7 29 52 44 78 25 138 58 188 104 51 46 53 46 70 26z m512 -124 c24 -16 63
-36 88 -44 56 -19 56 -30 -3 -146 -62 -125 -110 -149 -173 -86 -14 14 -29 25
-35 25 -5 0 -24 -23 -41 -50 -18 -30 -35 -47 -40 -42 -11 11 -30 200 -22 224
3 10 24 28 46 39 22 11 59 40 82 64 22 24 44 44 48 45 4 0 26 -13 50 -29z
m-892 -100 c55 -25 62 -31 45 -38 -24 -10 -260 -11 -270 -1 -7 7 25 87 51 126
l15 23 47 -40 c26 -22 76 -53 112 -70z m444 -140 c20 -17 16 -20 67 66 l30 52
32 -14 c30 -12 33 -18 40 -76 7 -59 6 -64 -17 -83 -13 -12 -36 -45 -51 -74
-36 -73 -96 -136 -154 -161 -65 -28 -170 -36 -258 -22 -78 14 -190 61 -199 85
-6 15 69 166 122 246 l26 39 44 -44 c24 -25 48 -45 54 -45 5 0 10 20 10 44 0
59 8 76 35 76 30 0 85 19 115 41 l25 17 31 -66 c17 -37 38 -73 48 -81z m591
-131 c22 -115 25 -377 6 -495 -39 -244 -123 -474 -247 -675 -56 -93 -165 -243
-183 -254 -21 -13 -85 193 -117 374 -18 108 -33 605 -18 620 17 17 153 35 172
24 22 -14 27 -48 12 -84 -12 -29 -94 -111 -139 -141 l-24 -15 49 -44 c77 -70
161 -160 201 -218 l37 -54 19 104 c33 190 108 379 197 496 22 29 40 60 40 69
0 21 -44 96 -86 148 -32 40 -32 40 -13 64 22 27 24 56 5 91 -13 22 -11 27 23
66 22 26 38 38 42 31 4 -7 15 -55 24 -107z m-164 12 c39 6 57 -22 39 -60 l-11
-25 -69 68 c-38 38 -67 72 -65 76 3 4 21 -9 40 -28 29 -29 41 -34 66 -31z
m-926 -181 c25 -16 70 -39 100 -51 30 -12 55 -28 55 -34 0 -24 -157 -252 -218
-317 -34 -37 -62 -74 -62 -84 0 -9 19 -76 42 -148 40 -127 41 -132 29 -190
-27 -130 -180 -510 -233 -580 -17 -21 -18 -17 -18 118 0 356 52 736 140 1025
36 115 106 290 116 290 2 0 24 -13 49 -29z m484 -343 c-20 -194 -5 -445 38
-638 24 -108 65 -233 84 -255 5 -5 9 -13 9 -17 0 -5 -36 21 -81 57 -44 36 -98
76 -119 90 -42 27 -52 48 -75 169 -28 147 -14 371 31 511 26 77 62 143 81 148
38 10 39 8 32 -65z m-403 -708 c37 -90 67 -175 66 -189 -3 -34 -53 -242 -62
-260 -10 -18 -11 -16 -54 194 -40 193 -55 281 -57 346 -2 46 17 97 31 83 4 -5
38 -83 76 -174z m-60 -432 l26 -127 -70 -153 c-65 -142 -71 -162 -86 -274 -9
-66 -19 -160 -23 -207 -4 -63 -10 -87 -19 -87 -12 0 -14 91 -14 530 l0 530 41
87 c23 49 48 104 57 123 l16 35 23 -165 c12 -91 34 -222 49 -292z m-222 -361
l6 -477 -207 2 -208 3 -5 260 c-3 143 -8 251 -12 240 -17 -45 -28 -172 -34
-376 l-7 -217 -51 -6 c-80 -9 -511 -7 -616 4 -52 5 -125 15 -162 21 l-67 12
61 39 c133 86 335 310 504 561 65 96 220 349 227 370 2 6 68 -14 157 -47 178
-67 236 -86 268 -86 24 0 97 89 122 149 7 17 14 30 15 29 1 -2 5 -218 9 -481z
m446 -276 c28 -55 69 -127 90 -160 l40 -61 -120 0 c-108 0 -120 2 -120 18 0
46 47 302 56 302 2 0 26 -45 54 -99z"/>
<path d="M3658 5514 c63 -24 120 -81 127 -130 6 -36 11 -41 65 -66 43 -21 66
-39 88 -74 17 -25 33 -51 35 -57 10 -27 15 2 7 38 -13 56 -39 87 -97 115 -42
20 -53 30 -58 56 -12 65 -80 118 -167 129 l-43 5 43 -16z"/>
<path d="M4065 4990 c114 -56 197 -142 245 -256 l20 -49 -6 50 c-17 138 -99
231 -242 275 -99 31 -105 24 -17 -20z"/>
</g>
</svg>
